HIERARCHY
ROOT hips
{
  OFFSET 0 10.6860622 2.3727825e-15
  CHANNELS 6 Xposition Yposition Zposition Yrotation Xrotation Zrotation
  JOINT leftUpperLeg
  {
    OFFSET 0.6642549969 -0.9402397400000004 0
    CHANNELS 3 Yrotation Xrotation Zrotation
    JOINT leftLowerLeg
    {
      OFFSET 0 -3.997221335632195 0
      CHANNELS 3 Yrotation Xrotation Zrotation
      JOINT leftFoot
      {
        OFFSET -0.13777839790000004 -4.6145792000000005 -0.22186036399999998
        CHANNELS 3 Yrotation Xrotation Zrotation
        JOINT leftToes
        {
          OFFSET -0.03777410834999995 -0.9130806927000008 0.85230013
          CHANNELS 3 Yrotation Xrotation Zrotation
          End Site
          {
            OFFSET -0.03777410834999995 -0.9130806927000008 0.85230013
          }
        }
      }
    }
  }
  JOINT rightUpperLeg
  {
    OFFSET -0.6642778626 -0.9402397400000004 0
    CHANNELS 3 Yrotation Xrotation Zrotation
    JOINT rightLowerLeg
    {
      OFFSET 0 -3.997221452859387 0
      CHANNELS 3 Yrotation Xrotation Zrotation
      JOINT rightFoot
      {
        OFFSET 0.1377926176 -4.6145792000000005 -0.22185782299999995
        CHANNELS 3 Yrotation Xrotation Zrotation
        JOINT rightToes
        {
          OFFSET 0.037780746850000047 -0.9130806927000008 0.85230167
          CHANNELS 3 Yrotation Xrotation Zrotation
          End Site
          {
            OFFSET 0.037780746850000047 -0.9130806927000008 0.85230167
          }
        }
      }
    }
  }
  JOINT spine
  {
    OFFSET 0 0.13988381660000015 0
    CHANNELS 3 Yrotation Xrotation Zrotation
    JOINT chest
    {
      OFFSET 0 0.6191039003973773 0
      CHANNELS 3 Yrotation Xrotation Zrotation
      JOINT upperChest
      {
        OFFSET 0 0.9855186130586943 0
        CHANNELS 3 Yrotation Xrotation Zrotation
        JOINT leftShoulder
        {
          OFFSET 0.1807663869 1.5087829790000005 0
          CHANNELS 3 Yrotation Xrotation Zrotation
          JOINT leftUpperArm
          {
            OFFSET 0.5985063006419806 0 0
            CHANNELS 3 Yrotation Xrotation Zrotation
            JOINT leftLowerArm
            {
              OFFSET 2.2993332369501065 0 0
              CHANNELS 3 Yrotation Xrotation Zrotation
              JOINT leftHand
              {
                OFFSET 2.395047042602395 0 0
                CHANNELS 3 Yrotation Xrotation Zrotation
                JOINT leftIndexProximal
                {
                  OFFSET 0.5766295810000004 0.04556643899499946 0.17265095988184
                  CHANNELS 3 Yrotation Xrotation Zrotation
                  JOINT leftIndexIntermediate
                  {
                    OFFSET 0.2957229000000008 -0.019352197700001517 -0.007932640616999987
                    CHANNELS 3 Yrotation Xrotation Zrotation
                    JOINT leftIndexDistal
                    {
                      OFFSET 0.19008243099999922 -0.012484908149998475 -0.002786250786000012
                      CHANNELS 3 Yrotation Xrotation Zrotation
                      End Site
                      {
                        OFFSET 0.19008243099999922 -0.012484908149998475 -0.002786250786000012
                      }
                    }
                  }
                }
                JOINT leftMiddleProximal
                {
                  OFFSET 0.5834975091000001 0.0524350405149987 0.02204081888183999
                  CHANNELS 3 Yrotation Xrotation Zrotation
                  JOINT leftMiddleIntermediate
                  {
                    OFFSET 0.33880573540000003 -0.019871473270000717 -0.00000971183179999946
                    CHANNELS 3 Yrotation Xrotation Zrotation
                    JOINT leftMiddleDistal
                    {
                      OFFSET 0.20676022730000088 -0.012221336379999448 0.0001471936708000235
                      CHANNELS 3 Yrotation Xrotation Zrotation
                      End Site
                      {
                        OFFSET 0.20676022730000088 -0.012221336379999448 0.0001471936708000235
                      }
                    }
                  }
                }
                JOINT leftLittleProximal
                {
                  OFFSET 0.5344154683999995 -0.012880921405001189 -0.24414037221816004
                  CHANNELS 3 Yrotation Xrotation Zrotation
                  JOINT leftLittleIntermediate
                  {
                    OFFSET 0.21758961730000093 -0.011650919939999227 0.011893592810000034
                    CHANNELS 3 Yrotation Xrotation Zrotation
                    JOINT leftLittleDistal
                    {
                      OFFSET 0.1475273964999999 -0.008152365682999818 0.006001092492999946
                      CHANNELS 3 Yrotation Xrotation Zrotation
                      End Site
                      {
                        OFFSET 0.1475273964999999 -0.008152365682999818 0.006001092492999946
                      }
                    }
                  }
                }
                JOINT leftRingProximal
                {
                  OFFSET 0.5799399463000003 0.026911854694997794 -0.12150566991816003
                  CHANNELS 3 Yrotation Xrotation Zrotation
                  JOINT leftRingIntermediate
                  {
                    OFFSET 0.26167887460000006 -0.013480186499999602 0.010996293000000053
                    CHANNELS 3 Yrotation Xrotation Zrotation
                    JOINT leftRingDistal
                    {
                      OFFSET 0.17667108799999987 -0.008990287899999228 0.0055541023999999065
                      CHANNELS 3 Yrotation Xrotation Zrotation
                      End Site
                      {
                        OFFSET 0.17667108799999987 -0.008990287899999228 0.0055541023999999065
                      }
                    }
                  }
                }
                JOINT leftThumbProximal
                {
                  OFFSET 0.11018806699999972 -0.09448718900500053 0.17047963138184
                  CHANNELS 3 Yrotation Xrotation Zrotation
                  JOINT leftThumbIntermediate
                  {
                    OFFSET 0.31062601459999983 -0.08126270900000132 0.15443142000000007
                    CHANNELS 3 Yrotation Xrotation Zrotation
                    JOINT leftThumbDistal
                    {
                      OFFSET 0.21627175790000086 -0.08833193599999878 0.018771167799999988
                      CHANNELS 3 Yrotation Xrotation Zrotation
                      End Site
                      {
                        OFFSET 0.21627175790000086 -0.08833193599999878 0.018771167799999988
                      }
                    }
                  }
                }
              }
            }
          }
        }
        JOINT neck
        {
          OFFSET 0 1.5463305265074576 0
          CHANNELS 3 Yrotation Xrotation Zrotation
          JOINT head
          {
            OFFSET 0 0.8456443600000344 0
            CHANNELS 3 Yrotation Xrotation Zrotation
            JOINT leftEye
            {
              OFFSET 0.30408573140000006 0.5104519199999995 0.1276382305
              CHANNELS 3 Yrotation Xrotation Zrotation
              End Site
              {
                OFFSET 0.30408573140000006 0.5104519199999995 0.1276382305
              }
            }
            JOINT rightEye
            {
              OFFSET -0.30409491089999996 0.5104519199999995 0.1276379445
              CHANNELS 3 Yrotation Xrotation Zrotation
              End Site
              {
                OFFSET -0.30409491089999996 0.5104519199999995 0.1276379445
              }
            }
            JOINT jaw
            {
              OFFSET -3.155239131000001e-7 -0.11984121820000082 0.60178107
              CHANNELS 3 Yrotation Xrotation Zrotation
              End Site
              {
                OFFSET -3.155239131000001e-7 -0.11984121820000082 0.60178107
              }
            }
          }
        }
        JOINT rightShoulder
        {
          OFFSET -0.1807303465 1.5087829790000005 0
          CHANNELS 3 Yrotation Xrotation Zrotation
          JOINT rightUpperArm
          {
            OFFSET -0.5985063796536958 0 0
            CHANNELS 3 Yrotation Xrotation Zrotation
            JOINT rightLowerArm
            {
              OFFSET -2.2993322059002854 0 0
              CHANNELS 3 Yrotation Xrotation Zrotation
              JOINT rightHand
              {
                OFFSET -2.395045314457259 0 0
                CHANNELS 3 Yrotation Xrotation Zrotation
                JOINT rightIndexProximal
                {
                  OFFSET -0.5764487688300002 0.0441371204405987 0.17361932004999997
                  CHANNELS 3 Yrotation Xrotation Zrotation
                  JOINT rightIndexIntermediate
                  {
                    OFFSET -0.29573011380000047 -0.01934826376999843 -0.007698921482999974
                    CHANNELS 3 Yrotation Xrotation Zrotation
                    JOINT rightIndexDistal
                    {
                      OFFSET -0.19008373999999884 -0.012503266380000655 -0.0026365778999999897
                      CHANNELS 3 Yrotation Xrotation Zrotation
                      End Site
                      {
                        OFFSET -0.19008373999999884 -0.012503266380000655 -0.0026365778999999897
                      }
                    }
                  }
                }
                JOINT rightMiddleProximal
                {
                  OFFSET -0.5834852037300005 0.05211639405060153 0.02307162440000001
                  CHANNELS 3 Yrotation Xrotation Zrotation
                  JOINT rightMiddleIntermediate
                  {
                    OFFSET -0.33880114510000003 -0.019952774050000954 0.0002455003561999819
                    CHANNELS 3 Yrotation Xrotation Zrotation
                    JOINT rightMiddleDistal
                    {
                      OFFSET -0.20675694929999955 -0.012273788999999091 0.00030209124000002766
                      CHANNELS 3 Yrotation Xrotation Zrotation
                      End Site
                      {
                        OFFSET -0.20675694929999955 -0.012273788999999091 0.00030209124000002766
                      }
                    }
                  }
                }
                JOINT rightLittleProximal
                {
                  OFFSET -0.5346811737299992 -0.011214256288399227 -0.24363941305000003
                  CHANNELS 3 Yrotation Xrotation Zrotation
                  JOINT rightLittleIntermediate
                  {
                    OFFSET -0.21757715980000092 -0.011771559690000988 0.01201554387
                    CHANNELS 3 Yrotation Xrotation Zrotation
                    JOINT rightLittleDistal
                    {
                      OFFSET -0.1475201849000004 -0.00822055339600003 0.006082065407000015
                      CHANNELS 3 Yrotation Xrotation Zrotation
                      End Site
                      {
                        OFFSET -0.1475201849000004 -0.00822055339600003 0.006082065407000015
                      }
                    }
                  }
                }
                JOINT rightRingProximal
                {
                  OFFSET -0.5800810755299999 0.027657985680600072 -0.12066365025000003
                  CHANNELS 3 Yrotation Xrotation Zrotation
                  JOINT rightRingIntermediate
                  {
                    OFFSET -0.26166445029999974 -0.013623118409999302 0.011164098990000045
                    CHANNELS 3 Yrotation Xrotation Zrotation
                    JOINT rightRingDistal
                    {
                      OFFSET -0.17666387530000027 -0.009072900100000503 0.005668185599999959
                      CHANNELS 3 Yrotation Xrotation Zrotation
                      End Site
                      {
                        OFFSET -0.17666387530000027 -0.009072900100000503 0.005668185599999959
                      }
                    }
                  }
                }
                JOINT rightThumbProximal
                {
                  OFFSET -0.10997596379000074 -0.09577489355940072 0.16989765924999997
                  CHANNELS 3 Yrotation Xrotation Zrotation
                  JOINT rightThumbIntermediate
                  {
                    OFFSET -0.31036620999999986 -0.08229339117999834 0.15440884469999996
                    CHANNELS 3 Yrotation Xrotation Zrotation
                    JOINT rightThumbDistal
                    {
                      OFFSET -0.21631306399999906 -0.08825326400000111 0.018656797720000014
                      CHANNELS 3 Yrotation Xrotation Zrotation
                      End Site
                      {
                        OFFSET -0.21631306399999906 -0.08825326400000111 0.018656797720000014
                      }
                    }
                  }
                }
              }
            }
          }
        }
      }
    }
  }
}
MOTION
Frames: 8
Frame Time: 0.03333333333333333
0 11.682712981546562 0 0 0 0 0 0 -5.826343164929014 -0.3712483961610101 -3.6333298826370974 5.838118207697276 0 0 0 0 0 0 0 0 5.826343164929014 0.3712483961610101 -3.6333298826370974 -5.838118207697276 0 0 0 0 0 0 0 -4.610651315171937 0 0 3.0831277533083026 0 0 0 0 0 1.5275236235667615 0 0 0 0 0 0 0 0 0 0 0 0 0 0 0 0 0 0 0 0 0 0 0 0 0 0 0 0 0 0 0 0 0 0 0 0 0 0 0 0 0 0 0 0 0 0 0 0 0 0 0 0 0 0 0 0 1.5275236235667615 0 0 0 0 0 0 0 0 0 0 0 0 0 0 1.5275236235667615 0 0 0 0 0 0 0 0 0 0 0 0 0 0 0 0 0 0 0 0 0 0 0 0 0 0 0 0 0 0 0 0 0 0 0 0 0 0 0 0 0 0 0 0 0 0 0 0 0 0 0 0 0 0 0
4.025256836853109 -7.873962822110639 -0.22008890906230819 89.32062855958401 89.74282935201698 -90.41471554501912 25.484804584201033 -39.76450753846611 12.389112288383265 -175.97486466508875 64.18644829907468 -152.87819102612644 2.9840980544556177 19.66091599170625 4.7235777146258116 0 0 0 -25.524142308919785 -39.767355435107206 -12.352182808792296 176.01982112587456 64.16874494105967 152.8661305004253 -2.9950642068165987 19.63943936643853 -4.710557275192164 0 0 0 -0.8009400574719677 38.65146966753403 -1.3785730941540257 -0.813122391185127 -21.77656156916095 -0.16168745238679474 0 0 0 -3.1480349679957715 7.164036988141457 -11.372084563402554 -10.922618153757847 -62.316416431250815 -59.32691904927507 -100.22223188150663 46.487585888967274 38.847710111362325 -7.990529588095594 10.525150776577627 -2.8372165085893037 0 0 0 0 0 0 0 0 0 0 0 0 0 0 0 0 0 0 0 0 0 0 0 0 0 0 0 0 0 0 0 0 0 0 0 0 0 0 0 0 0 0 0 0 0 0 -32.48055932570766 0 -0.0013473643674757367 -39.343294707491566 -0.05336881805490947 0 0 0 0 0 0 0 0 0 3.4760674649183576 7.1225653390635 11.185304371648431 11.067060967897158 -62.2029064899896 59.626387793055144 100.54923277211788 46.68562705932349 -38.65216218148531 7.8494836499989 10.950007393787557 2.8435460233187237 0 0 0 0 0 0 0 0 0 0 0 0 0 0 0 0 0 0 0 0 0 0 0 0 0 0 0 0 0 0 0 0 0 0 0 0 0 0 0 0 0 0 0 0 0
4.025256836853109 -7.873962822110639 -0.22313435616481825 89.32062855958401 89.74282935201698 -90.41471554501912 25.484804584201033 -39.76450753846611 12.389112288383265 -175.948036009902 64.07521759857812 -152.86405880694707 2.9840980544556177 19.66091599170625 4.7235777146258116 0 0 0 -25.524142308919785 -39.767355435107206 -12.352182808792296 175.99198200515127 64.05807673894779 152.8525566304347 -2.9950642068165987 19.63943936643853 -4.710557275192164 0 0 0 -0.8009400574719677 38.65146966753403 -1.3785730941540257 -0.813122391185127 -21.77656156916095 -0.16168748111739725 0 0 0 -3.278056051538328 7.251139975777804 -11.457132912879336 -10.922618153757847 -62.316416431250815 -59.32691904927507 -100.22223188150663 46.487585888967274 38.847710111362325 -8.144970217454855 10.567912123299974 -2.783039043241717 0 0 0 0 0 0 0 0 0 0 0 0 0 0 0 0 0 0 0 0 0 0 0 0 0 0 0 0 0 0 0 0 0 0 0 0 0 0 0 0 0 0 0 0 0 0 -32.286204358533006 0 -0.0013436193939718368 -38.680735027215654 -0.05340330776954271 0 0 0 0 0 0 0 0 0 3.622802332240452 7.210390577174792 11.266886462246644 11.067070342614734 -62.20289916683219 59.62637700842449 100.54923308422596 46.68562705932349 -38.65215907210647 8.00026450511321 11.001304702058768 2.790914313801303 0 0 0 0 0 0 0 0 0 0 0 0 0 0 0 0 0 0 0 0 0 0 0 0 0 0 0 0 0 0 0 0 0 0 0 0 0 0 0 0 0 0 0 0 0
4.025256836853109 -7.873962822110639 -0.22617980326732834 89.32062855958401 89.74282935201698 -90.41471554501912 25.484804584201033 -39.76450753846611 12.389112288383265 -175.9213769935669 63.96398586463507 -152.8500995579708 2.9840980544556177 19.66091599170625 4.723576512436297 0 0 0 -25.524142308919785 -39.767355435107206 -12.352182808792296 175.96431245544622 63.94739520353209 152.8391593281657 -2.9950642068165987 19.639437553421374 -4.71055697741445 0 0 0 -0.8009400574719677 38.65146966753403 -1.3785730941540257 -0.813122391185127 -21.776559730395046 -0.1616874954826985 0 0 0 -3.408232680598607 7.338051495486086 -11.542396883643699 -10.922618153757847 -62.316416431250815 -59.32691904927507 -100.22223188150663 46.487585888967274 38.847710111362325 -8.29939165026906 10.610816667860984 -2.7289711577250446 0 0 0 0 0 0 0 0 0 0 0 0 0 0 0 0 0 0 0 0 0 0 0 0 0 0 0 0 0 0 0 0 0 0 0 0 0 0 0 0 0 0 0 0 0 0 -32.091845829550564 0 -0.0013404148134358578 -38.018175879456884 -0.053437424027427405 0 0 0 0 0 0 0 0 0 3.7696917400776124 7.298008625558485 11.348709987717008 11.067078116088723 -62.20289184367653 59.62636965473288 100.54923553128712 46.68562208105823 -38.65215907210647 8.151023531683194 11.052737947001406 2.7384113310355125 0 0 0 0 0 0 0 0 0 0 0 0 0 0 0 0 0 0 0 0 0 0 0 0 0 0 0 0 0 0 0 0 0 0 0 0 0 0 0 0 0 0 0 0 0
4.025256836853109 -7.873962822110639 -0.23227096586461968 89.32062855958401 89.74282935201698 -90.41471554501912 25.484804584201033 -39.76450753846611 12.389112288383265 -175.8685542235834 63.74149452600994 -152.8227034308049 2.9840982432478644 19.660917804966104 4.7235777146258116 0 0 0 -25.524144223365226 -39.76735987809571 -12.352183759237114 175.90947068909136 63.726014267128704 152.81288573984293 -2.9950642068165987 19.63943936643853 -4.710557275192164 0 0 0 -0.8009400574719677 38.65146966753403 -1.3785730941540257 -0.813122391185127 -21.77656156916095 -0.16168745238679474 0 0 0 -3.6690888776735058 7.511318567081452 -11.713593172932582 -10.922610239702784 -62.316416431250815 -59.32692882719084 -100.22223188150663 46.487585888967274 38.847710111362325 -8.608225837823458 10.697067852314767 -2.621151378828917 0 0 0 0 0 0 0 0 0 0 0 0 0 0 0 0 0 0 0 0 0 0 0 0 0 0 0 0 0 0 0 0 0 0 0 0 0 0 0 0 0 0 0 0 0 0 -31.703049062310097 0 -0.0013343668337994176 -36.690177660809724 -0.05350573134386133 0 0 0 0 0 0 0 0 0 4.063981678269386 7.472644582908013 11.513111958279895 11.067060967897158 -62.2029064899896 59.626387793055144 100.54923277211788 46.68562705932349 -38.65216218148531 8.452522332126573 11.15602401190695 2.633775425489077 0 0 0 0 0 0 0 0 0 0 0 0 0 0 0 0 0 0 0 0 0 0 0 0 0 0 0 0 0 0 0 0 0 0 0 0 0 0 0 0 0 0 0 0 0
4.025256836853109 -7.873962822110639 -0.23531641296712974 89.32062855958401 89.74282935201698 -90.41471554501912 25.484804584201033 -39.76450753846611 12.389112288383265 -175.84238865341237 63.6302343078832 -152.80926216538177 2.9840982432478644 19.660917804966104 4.7235777146258116 0 0 0 -25.52414431360449 -39.76735099211898 -12.352183893826856 175.88229316935303 63.61530650094034 152.7999966224345 -2.9950642068165987 19.63943936643853 -4.710557275192164 0 0 0 -0.8009400574719677 38.65146966753403 -1.3785730941540257 -0.813122391185127 -21.77656156916095 -0.16168745238679474 0 0 0 -3.7997682279759233 7.597672573408824 -11.799527249083594 -10.922621271924404 -62.31640908045474 -59.32691460187759 -100.22223188150663 46.487585888967274 38.847710111362325 -8.762631849619488 10.740411190330665 -2.567399679970004 0 0 0 0 0 0 0 0 0 0 0 0 0 0 0 0 0 0 0 0 0 0 0 0 0 0 0 0 0 0 0 0 0 0 0 0 0 0 0 0 0 0 0 0 0 0 -31.50862272504643 0 -0.0013327584703721007 -36.02492161982091 -0.053539201588515876 0 0 0 0 0 0 0 0 0 4.211381939002339 7.559661799188274 11.595688586985608 11.067060967897158 -62.2029064899896 59.626387793055144 100.54923277211788 46.68562705932349 -38.65216218148531 8.603259687404554 11.207876193944172 2.5816452355838404 0 0 0 0 0 0 0 0 0 0 0 0 0 0 0 0 0 0 0 0 0 0 0 0 0 0 0 0 0 0 0 0 0 0 0 0 0 0 0 0 0 0 0 0 0
4.025256836853109 -7.873962822110639 -0.2383618600696398 89.32062855958401 89.74282935201698 -90.41471554501912 25.484804584201033 -39.76450753846611 12.389112288383265 -175.81638442339724 63.51897930420608 -152.7959867913055 2.9840980544556177 19.66091599170625 4.7235777146258116 0 0 0 -25.524142399159214 -39.76734654913104 -12.352183077971889 175.85527672753412 63.50459193787756 152.78727711747484 -2.9950642068165987 19.63943936643853 -4.710557275192164 0 0 0 -0.8009400574719677 38.65146966753403 -1.3785730941540257 -0.813122391185127 -21.77656156916095 -0.16168745238679474 0 0 0 -3.930604381898791 7.683832012200421 -11.885677308700949 -10.922632304143761 -62.31640908045474 -59.32689850160436 -100.22223188150663 46.487585888967274 38.847710111362325 -8.91701901740134 10.78389633172693 -2.5137592233116113 0 0 0 0 0 0 0 0 0 0 0 0 0 0 0 0 0 0 0 0 0 0 0 0 0 0 0 0 0 0 0 0 0 0 0 0 0 0 0 0 0 0 0 0 0 0 -31.31420025018896 0 -0.0013316400505698383 -35.35966653217508 -0.05357237346083241 0 0 0 0 0 0 0 0 0 4.358938061221798 7.64646741635439 11.678507221948518 11.067060967897158 -62.2029064899896 59.626387793055144 100.54923277211788 46.68562705932349 -38.65216218148531 8.753975156189824 11.259863032185235 2.529644963635014 0 0 0 0 0 0 0 0 0 0 0 0 0 0 0 0 0 0 0 0 0 0 0 0 0 0 0 0 0 0 0 0 0 0 0 0 0 0 0 0 0 0 0 0 0
4.025256836853109 -7.873962822110639 -0.24445302266693122 89.32062855958401 89.74282935201698 -90.41471554501912 25.484804584201033 -39.76450753846611 12.38910916550825 -175.76484412235985 63.2964298371833 -152.76991588151452 2.9840980544556177 19.66091599170625 4.7235777146258116 0 0 0 -25.524140304235015 -39.767355435107206 -12.352184978861407 175.8017176262689 63.283163884064315 152.76233842140675 -2.9950642068165987 19.63943936643853 -4.710557275192164 0 0 0 -0.8009400574719677 38.65146966753403 -1.3785730941540257 -0.813122391185127 -21.77656156916095 -0.16168745238679474 0 0 0 -4.192778071721727 7.855583868626025 -12.058644273972684 -10.922632304143761 -62.31640908045474 -59.32689850160436 -100.22223737305706 46.487585888967274 38.84770506861349 -9.225774261169683 10.871307150540959 -2.406801898377831 0 0 0 0 0 0 0 0 0 0 0 0 0 0 0 0 0 0 0 0 0 0 0 0 0 0 0 0 0 0 0 0 0 0 0 0 0 0 0 0 0 0 0 0 0 0 -30.925294182096962 0 -0.001330880727409782 -34.02698549537915 -0.0536382622840332 0 0 0 0 0 0 0 0 0 4.654554151808717 7.819460508305036 11.844890474902417 11.067060967897158 -62.2029064899896 59.626387793055144 100.5492392018788 46.68562208105823 -38.65215596272806 9.055379470171683 11.364250720061117 2.4260218592747167 0 0 0 0 0 0 0 0 0 0 0 0 0 0 0 0 0 0 0 0 0 0 0 0 0 0 0 0 0 0 0 0 0 0 0 0 0 0 0 0 0 0 0 0 0
